<svg xmlns="http://www.w3.org/2000/svg" id="b" viewBox="0 0 803.08 240.55"><defs><style>.d{fill:#faa948;}</style></defs><g id="c"><g><path class="d" d="M181.19,0h-36.58l.12,119.66c-.56,13.84-12.1,25.11-26.22,25.11s-26.24-11.81-26.24-26.28,11.73-26.26,26.2-26.26c3.84,0,7.38,.82,10.72,2.3V56.53c-3.34-.61-7.05-.93-10.72-.93-34.65,0-62.82,28.19-62.82,62.84s28.2,62.84,62.85,62.84,62.89-28.19,62.89-62.84c0-30.79-.2-118.44-.2-118.44Z"></path><g><path class="d" d="M198.08,49.91v-1.07c0-29.44,20.88-48.84,48.84-48.84,24.89,0,42.15,11.51,44.43,36.8h-28.24c-1.07-9.77-6.42-15.12-16.06-15.12-12.31,0-20.07,9.64-20.07,27.03v1.07c0,17.26,7.36,27.03,20.47,27.03,9.63,0,16.46-5.09,17.8-15.66h27.3c-1.87,24.76-19.8,37.6-44.56,37.6-33.45,0-49.91-19.54-49.91-48.84Z"></path><path class="d" d="M299.38,63.03v-1.07c0-22.48,16.73-36.67,38.41-36.67s38.14,13.78,38.14,36v1.07c0,22.75-16.73,36.4-38.27,36.4s-38.27-13.11-38.27-35.73Zm52.19-.4v-1.07c0-11.78-4.68-18.33-13.78-18.33s-13.92,6.29-13.92,18.07v1.07c0,12.04,4.68,18.6,13.92,18.6s13.78-6.69,13.78-18.33Z"></path><path class="d" d="M386.37,27.17h23.95v10.71c3.75-6.69,11.11-12.58,21.95-12.58,9.23,0,15.66,4.01,19,11.64,6.02-8.16,14.32-11.64,23.15-11.64,13.25,0,22.88,8.56,22.88,26.09v45.77h-23.95V55.4c0-7.09-3.48-10.57-8.97-10.57-6.42,0-10.71,4.15-10.71,11.78v40.55h-23.69V55.4c0-7.09-3.48-10.57-8.97-10.57-6.42,0-10.71,4.15-10.71,11.78v40.55h-23.95V27.17Z"></path><path class="d" d="M510.95,27.17h23.95v10.44c4.01-6.69,11.24-12.31,21.81-12.31,16.33,0,29.57,12.31,29.57,36.26v1.07c0,24.09-13.25,36.13-29.71,36.13-10.57,0-18.2-4.95-21.68-11.91v33.72h-23.95V27.17Zm50.98,35.46v-1.07c0-12.31-5.35-18.2-13.78-18.2s-13.92,6.29-13.92,18.07v1.07c0,11.91,5.22,17.93,13.92,17.93s13.78-6.29,13.78-17.8Z"></path><path class="d" d="M592.99,77.75c0-16.46,13.92-22.88,37.2-22.88h6.69v-1.61c0-6.69-1.61-11.11-9.23-11.11-6.56,0-8.97,3.88-9.5,8.3h-22.48c1.07-16.86,14.32-25.16,33.45-25.16s31.58,7.9,31.58,26.5v45.36h-23.28v-8.16c-3.35,5.09-9.5,9.77-20.74,9.77-12.58,0-23.69-6.16-23.69-21.01Zm43.89-5.09v-4.28h-6.29c-9.64,0-13.92,1.87-13.92,7.63,0,4.01,2.68,6.56,8.3,6.56,6.83,0,11.91-3.88,11.91-9.9Z"></path><path class="d" d="M669.66,74.94h22.08c.8,5.09,3.08,7.9,9.9,7.9,5.89,0,8.56-2.28,8.56-5.75s-3.35-4.95-12.98-6.29c-18.73-2.41-26.63-7.9-26.63-22.48,0-15.52,13.78-23.02,29.98-23.02,17.26,0,29.31,5.89,30.91,22.61h-21.68c-.94-4.68-3.48-6.96-8.97-6.96s-7.9,2.28-7.9,5.49,3.21,4.68,11.78,5.75c19.4,2.41,28.77,7.49,28.77,22.48,0,16.59-12.31,24.09-31.71,24.09s-31.58-8.3-32.12-23.82Z"></path><path class="d" d="M739.25,74.94h22.08c.8,5.09,3.08,7.9,9.9,7.9,5.89,0,8.56-2.28,8.56-5.75s-3.35-4.95-12.98-6.29c-18.73-2.41-26.63-7.9-26.63-22.48,0-15.52,13.78-23.02,29.98-23.02,17.26,0,29.31,5.89,30.91,22.61h-21.68c-.94-4.68-3.48-6.96-8.97-6.96s-7.9,2.28-7.9,5.49,3.21,4.68,11.78,5.75c19.4,2.41,28.77,7.49,28.77,22.48,0,16.59-12.31,24.09-31.71,24.09s-31.58-8.3-32.12-23.82Z"></path></g><g><path class="d" d="M203.04,118.91h34.79c33.99,0,51.25,16.99,51.25,46.7v1.07c0,29.84-17.66,47.91-51.39,47.91h-34.66V118.91Zm33.86,74.54c16.33,0,23.55-8.56,23.55-26.36v-1.07c0-18.2-7.23-25.96-23.82-25.96h-6.02v53.39h6.29Z"></path><path class="d" d="M299.79,125.61c0-7.09,5.62-12.45,13.11-12.45s13.25,5.35,13.25,12.45-5.75,12.31-13.25,12.31-13.11-5.22-13.11-12.31Zm1.2,19h23.95v69.99h-23.95v-69.99Z"></path><path class="d" d="M335.92,214.59h23.82c1.07,5.09,4.15,9.1,12.85,9.1,10.57,0,14.85-6.02,14.85-14.72v-10.71c-3.61,6.69-11.24,12.85-21.68,12.85-16.33,0-29.71-12.04-29.71-33.59v-1.07c0-20.61,13.25-33.72,29.71-33.72,11.11,0,17.66,4.68,21.68,11.78v-9.9h23.95v64.1c0,20.88-13.78,31.85-38.81,31.85s-34.79-10.04-36.67-25.96Zm52.19-37.2v-.94c0-9.63-4.95-15.79-13.78-15.79s-13.78,6.29-13.78,15.92v1.07c0,9.64,5.09,15.79,13.65,15.79s13.92-6.16,13.92-16.06Z"></path><path class="d" d="M425.04,125.61c0-7.09,5.62-12.45,13.11-12.45s13.25,5.35,13.25,12.45-5.75,12.31-13.25,12.31-13.11-5.22-13.11-12.31Zm1.2,19h23.95v69.99h-23.95v-69.99Z"></path><path class="d" d="M468.27,192.11v-31.18h-8.43v-16.33h8.43v-14.59h23.95v14.59h13.78v16.33h-13.78v28.9c0,5.09,2.54,7.36,7.09,7.36,2.68,0,4.68-.4,6.82-1.2v18.2c-3.08,.8-7.63,2.01-13.25,2.01-15.79,0-24.62-7.63-24.62-24.09Z"></path><path class="d" d="M513.1,195.19c0-16.46,13.92-22.88,37.2-22.88h6.69v-1.61c0-6.69-1.61-11.11-9.23-11.11-6.56,0-8.97,3.88-9.5,8.3h-22.48c1.07-16.86,14.32-25.16,33.45-25.16s31.58,7.9,31.58,26.5v45.36h-23.28v-8.16c-3.35,5.09-9.5,9.77-20.74,9.77-12.58,0-23.69-6.16-23.69-21.01Zm43.89-5.09v-4.28h-6.29c-9.64,0-13.92,1.87-13.92,7.63,0,4.01,2.68,6.56,8.3,6.56,6.83,0,11.91-3.88,11.91-9.9Z"></path><path class="d" d="M595.13,113.83h23.82v100.76h-23.82V113.83Z"></path></g><path class="d" d="M116.66,203.25c-55.94-2.56-80.6-44.57-79.89-86.65,.06-3.65,.37-7.24,.89-10.76h-.1c6.08-39.17,40.03-69.25,80.88-69.25,3.65,0,7.24-.27,10.77,.2V.49c-3.56-.32-7.15-.49-10.77-.49-31.64,0-61.38,12.32-83.75,34.69C12.32,57.06,0,86.81,0,118.44s12.32,61.38,34.69,83.75c22.69,22.69,83.83,59.48,146.7,15.58v-41.51c-17.45,19.97-40.6,28.09-64.73,26.99Z"></path></g></g></svg>